<svg xmlns="http://www.w3.org/2000/svg" width="300mm" height="300mm" viewBox="0 0 300 300">

    <defs>
      <linearGradient id="goldGrad" x1="0" y1="0" x2="1" y2="1">
        <stop offset="0%" stop-color="#d9c27a"/>
        <stop offset="100%" stop-color="#b4943f"/>
      </linearGradient>

      <filter id="vellum" x="-10%" y="-10%" width="120%" height="120%">
        <feTurbulence type="fractalNoise" baseFrequency="0.9" numOctaves="3" seed="7" result="noise"/>
        <feColorMatrix type="matrix" values="
          1 0 0 0 0
          0 1 0 0 0
          0 0 1 0 0
          0 0 0 0.25 0" in="noise" result="grain"/>
        <feBlend in="SourceGraphic" in2="grain" mode="multiply"/>
      </filter>

      <filter id="inkSpread">
        <feGaussianBlur stdDeviation="0.15"/>
        <feComponentTransfer>
          <feFuncA type="gamma" amplitude="0.9" exponent="0.9" offset="0"/>
        </feComponentTransfer>
      </filter>

      <pattern id="hatch" patternUnits="userSpaceOnUse" width="4" height="4" patternTransform="rotate(45)">
        <line x1="0" y1="0" x2="0" y2="4" stroke="#1b1a18" stroke-width="0.25" opacity="0.12"/>
      </pattern>
    </defs>
    
    <rect x="0" y="0" width="300" height="300" rx="6" ry="6" fill="#efe7d6"/>
    <rect x="1.2" y="1.2" width="297.6" height="297.6" rx="5" ry="5"
          fill="#e3d5bd" opacity="0.25" filter="url(#vellum)"/>
    
    <rect x="8" y="8" width="284" height="284" fill="none" stroke="url(#goldGrad)" stroke-width="2"/>
    <g fill="url(#goldGrad)" opacity="0.9">
      <circle cx="18" cy="18" r="3"/><circle cx="282" cy="18" r="3"/>
      <circle cx="18" cy="282" r="3"/><circle cx="282" cy="282" r="3"/>
    </g>
    <!-- Simple vine filigree along left -->
    <path d="M 14 24 q 6 12 0 24 q -6 12 0 24 q 6 12 0 24 q -6 12 0 24 q 6 12 0 24"
          fill="none" stroke="#2e4f2c" stroke-width="1" opacity="0.3"/>
    
    <g text-anchor="middle" font-family="serif">
      <!-- Illuminated initial K tile -->
      <rect x="84.0" y="17.0" width="34" height="34" fill="url(#goldGrad)" stroke="#1b1a18" stroke-width="1.2"/>
      <text x="101.0" y="39.0" font-size="22" fill="#1b1a18" font-weight="bold" filter="url(#inkSpread)">K</text>
      <!-- Title -->
      <text x="158.0" y="39.0" font-size="26" fill="#1b1a18" letter-spacing="1.5" filter="url(#inkSpread)">KON’REH</text>
      <text x="150.0" y="57.0" font-size="9.5" fill="#1b1a18" style="font-variant: small-caps;" opacity="0.9">Duke Fenwood Edition</text>
      <rect x="110.0" y="61.0" width="80" height="1.2" fill="url(#goldGrad)"/>
    </g>
    <g><polygon points="150.0 80.0 220.0 150.0 150.0 220.0 80.0 150.0" fill="url(#hatch)" stroke="#1b1a18" stroke-width="1.2" opacity="0.35"/><path d="M 118.5 174.5 q 6.3 -17.5 12.6 0" fill="none" stroke="#1b1a18" stroke-width="1.2" opacity="0.6"/>
<path d="M 134.25 174.5 q 6.3 -17.5 12.6 0" fill="none" stroke="#1b1a18" stroke-width="1.2" opacity="0.6"/>
<path d="M 150.0 174.5 q 6.3 -17.5 12.6 0" fill="none" stroke="#1b1a18" stroke-width="1.2" opacity="0.6"/>
<path d="M 165.75 174.5 q 6.3 -17.5 12.6 0" fill="none" stroke="#1b1a18" stroke-width="1.2" opacity="0.6"/>
<path d="M 181.5 174.5 q 6.3 -17.5 12.6 0" fill="none" stroke="#1b1a18" stroke-width="1.2" opacity="0.6"/>
    <g>
      <path d="M 90.0 98.0 q 30 -16 60 0 q -10 12 -60 12 q 0 -8 0 -12 z"
            fill="#7f1d1d" opacity="0.9" stroke="#1b1a18" stroke-width="0.8"/>
      <path d="M 210.0 98.0 q 8 4 10 10 q -6 -2 -12 0" fill="#7f1d1d" opacity="0.9" stroke="#1b1a18" stroke-width="0.8"/>
      <path d="M 90.0 110.0 q -8 4 -10 10 q 6 -2 12 0" fill="#7f1d1d" opacity="0.9" stroke="#1b1a18" stroke-width="0.8"/>
      <text x="150.0" y="107.0" text-anchor="middle" font-size="10.5" fill="#efe7d6" letter-spacing="1.4" filter="url(#inkSpread)">LEGATE VARRO</text>
    </g>
    </g>
    <g>
      <rect x="18" y="216.0" width="264" height="38" fill="#2b2520" opacity="0.85" rx="6" ry="6"/>
      <text x="150.0" y="229.0" text-anchor="middle" font-size="9.2" fill="#efe7d6" style="font-variant: small-caps;">A diamond-board strategy in the age of banners and stone.</text>
      <text x="150.0" y="242.0" text-anchor="middle" font-size="8.2" fill="#efe7d6" opacity="0.92">2 players · 20–45 minutes · Ages 12+</text>
    </g>
    <text x="290" y="290" text-anchor="end" font-size="6.2" fill="#1b1a18" opacity="0.8">© 2025 Nicholas A. Gasper — All Rights Reserved</text></svg>