<svg viewBox="0 0 512 512" xmlns="http://www.w3.org/2000/svg">
  <defs>
    <pattern id="p-hatch" width="16" height="16" patternUnits="userSpaceOnUse">
      <path d="M0 0 L16 16 M-8 8 L8 -8 M8 24 L24 8" stroke="#000" stroke-width="3" opacity=".18" fill="none"/>
    </pattern>
    <clipPath id="clip"><rect x="16" y="16" width="480" height="480" rx="40" ry="40"/></clipPath>
  </defs>
  <rect x="16" y="16" width="480" height="480" rx="40" ry="40" fill="#009E73"/>
  <rect x="16" y="16" width="480" height="480" clip-path="url(#clip)" fill="url(#p-hatch)"/>
  <path d="M256 112 L286 208 L386 208 L306 268 L336 364 L256 304 L176 364 L206 268 L126 208 L226 208 Z"
        fill="#fff" stroke="#fff" stroke-width="8"/>
  <path d="M256 112 L286 208 L386 208 L306 268 L336 364 L256 304 L176 364 L206 268 L126 208 L226 208 Z"
        fill="none" stroke="#F4F1EC" stroke-width="3" opacity=".9"/>
</svg>
